<?xml version="1.0" standalone="no"?><!DOCTYPE svg PUBLIC "-//W3C//DTD SVG 1.1//EN" "http://www.w3.org/Graphics/SVG/1.1/DTD/svg11.dtd"><svg t="1643125303135" class="icon" viewBox="0 0 1024 1024" version="1.1" xmlns="http://www.w3.org/2000/svg" p-id="1002" xmlns:xlink="http://www.w3.org/1999/xlink" width="200" height="200"><defs><style type="text/css"></style></defs><path d="M896 522.24V853.333333a42.666667 42.666667 0 0 1-42.666667 42.666667h-170.666666a42.666667 42.666667 0 0 1-42.666667-42.666667v-234.666666a21.333333 21.333333 0 0 0-21.333333-21.333334h-213.333334a21.333333 21.333333 0 0 0-21.333333 21.333334V853.333333a42.666667 42.666667 0 0 1-42.666667 42.666667H170.666667a42.666667 42.666667 0 0 1-42.666667-42.666667v-331.093333a128 128 0 0 1 37.546667-90.453333l291.413333-291.413334a42.666667 42.666667 0 0 1 29.866667-12.373333h50.346666a42.666667 42.666667 0 0 1 29.866667 12.373333l291.413333 291.413334a128 128 0 0 1 37.546667 90.453333z" p-id="1003"></path></svg>