<?xml version="1.0" standalone="no"?><!DOCTYPE svg PUBLIC "-//W3C//DTD SVG 1.1//EN" "http://www.w3.org/Graphics/SVG/1.1/DTD/svg11.dtd"><svg t="1643718805750" class="icon" viewBox="0 0 1024 1024" version="1.1" xmlns="http://www.w3.org/2000/svg" p-id="1077" xmlns:xlink="http://www.w3.org/1999/xlink" width="200" height="200"><defs><style type="text/css"></style></defs><path d="M512 64C262.4 64 64 262.4 64 512s198.4 448 448 448 448-198.4 448-448S761.6 64 512 64z m236.8 326.4L454.4 684.8c-12.8 12.8-32 12.8-44.8 0L275.2 544c-12.8-12.8-12.8-32 0-44.8 12.8-12.8 32-12.8 44.8 0l115.2 115.2L704 339.2c12.8-12.8 32-12.8 44.8 0 12.8 12.8 12.8 38.4 0 51.2z" p-id="1078"></path></svg>