<?xml version="1.0" standalone="no"?><!DOCTYPE svg PUBLIC "-//W3C//DTD SVG 1.1//EN" "http://www.w3.org/Graphics/SVG/1.1/DTD/svg11.dtd"><svg t="1643534545782" class="icon" viewBox="0 0 1026 1024" version="1.1" xmlns="http://www.w3.org/2000/svg" p-id="4821" xmlns:xlink="http://www.w3.org/1999/xlink" width="200.390625" height="200"><defs><style type="text/css"></style></defs><path d="M984.436364 311.854545c-25.6-60.509091-62.836364-116.363636-109.381819-162.90909l-6.981818-6.981819C772.654545 51.2 644.654545 0 512 0 374.690909 0 246.690909 53.527273 148.945455 148.945455v2.327272C53.527273 249.018182 0 377.018182 0 512c0 55.854545 9.309091 107.054545 25.6 158.254545 16.290909 46.545455 37.236364 90.763636 65.163636 132.654546l4.654546 4.654545v195.490909c0 9.309091 9.309091 18.618182 18.618182 18.618182H512c69.818182 0 134.981818-13.963636 200.145455-39.563636 60.509091-25.6 116.363636-62.836364 162.90909-109.381818l6.981819-6.981818c93.090909-95.418182 144.290909-221.090909 144.290909-356.072728-2.327273-67.490909-16.290909-132.654545-41.890909-197.818182zM695.854545 593.454545L512 770.327273c-2.327273 2.327273-6.981818 4.654545-11.636364 4.654545s-6.981818-2.327273-11.636363-4.654545l-181.527273-174.545455-2.327273-2.327273c-44.218182-44.218182-55.854545-100.072727-34.909091-153.6 23.272727-58.181818 81.454545-97.745455 141.963637-97.745454 27.927273 0 55.854545 9.309091 81.454545 25.6l4.654546 2.327273 4.654545-2.327273c25.6-16.290909 53.527273-25.6 81.454546-25.6 60.509091 0 118.690909 39.563636 141.963636 97.745454 25.6 53.527273 13.963636 109.381818-30.254546 153.6z" p-id="4822"></path></svg>