<?xml version="1.0" standalone="no"?><!DOCTYPE svg PUBLIC "-//W3C//DTD SVG 1.1//EN" "http://www.w3.org/Graphics/SVG/1.1/DTD/svg11.dtd"><svg t="1643553827891" class="icon" viewBox="0 0 1024 1024" version="1.1" xmlns="http://www.w3.org/2000/svg" p-id="2569" xmlns:xlink="http://www.w3.org/1999/xlink" width="200" height="200"><defs><style type="text/css"></style></defs><path d="M822.9 311.3l-45.7-72.1c60.8-38.5 78.3-57.5 83-63.7-0.6-23.9-19.2-26.2-25.6-26.9 0.3 0.1-25.8-1.9-77.2 81.2l-72.6-44.9c34.7-56.1 89.3-129.8 160-121.1 73.8 8.8 103.9 69.3 100.5 121.8-1.9 30.1-23.4 63-122.4 125.7z m38.8-138.1zM203.3 311.3c-99-62.7-120.5-95.6-122.4-125.8-3.3-52.5 26.7-113 100.5-121.8 71.5-8.4 125.4 65.1 160 121.1l-72.6 44.9c-51.4-83.1-77.3-81.2-77.2-81.2-6.4 0.8-24.9 3-25.6 27 4.7 6.2 22.2 25.2 83 63.7l-45.7 72.1z m-38.8-138.1zM644.7 425.1h85.4c0-92.1-72.4-169-168.5-187.7v-87.1h-85.4v86.3c-98.4 17.1-173.1 95-173.1 188.5h85.4c0-47 36.9-86.6 87.7-100.8v43.9c-50.8 17-87.7 64.5-87.7 120.9h85.4c0-23.5 19.2-42.7 42.7-42.7 23.5 0 42.7 19.2 42.7 42.7h85.4c0-54.8-34.7-101.2-83.1-119.5v-44.1c48.4 15.3 83.1 54 83.1 99.6z" fill="#7BF2FC" p-id="2570"></path><path d="M516.6 958.9c-235.5 0-427-191.6-427-427s191.6-427 427-427 427 191.6 427 427-191.6 427-427 427z m0-768.6C328.2 190.3 175 343.6 175 531.9s153.3 341.6 341.6 341.6 341.6-153.3 341.6-341.6-153.3-341.6-341.6-341.6z" fill="#66B2F6" p-id="2571"></path><path d="M345.7 617.3m-42.7 0a42.7 42.7 0 1 0 85.4 0 42.7 42.7 0 1 0-85.4 0Z" fill="#7EDBFE" p-id="2572"></path><path d="M687.4 617.3m-42.7 0a42.7 42.7 0 1 0 85.4 0 42.7 42.7 0 1 0-85.4 0Z" fill="#7EDBFE" p-id="2573"></path></svg>